<svg width="19" height="21" viewBox="0 0 19 21" fill="none" xmlns="http://www.w3.org/2000/svg">
<path d="M17.0625 4.88086V13.125C17.0625 14.3145 16.7686 15.4116 16.1807 16.4165C15.5928 17.4214 14.7964 18.2178 13.7915 18.8057C12.7866 19.3936 11.6895 19.6875 10.5 19.6875V21L6.5625 18.375L10.5 15.75V17.0625C11.5937 17.0625 12.5234 16.6797 13.2891 15.9141C14.0547 15.1484 14.4375 14.2187 14.4375 13.125V4.88086C14.041 4.64844 13.7231 4.33398 13.4839 3.9375C13.2446 3.54102 13.125 3.10352 13.125 2.625C13.125 1.90039 13.3813 1.28174 13.894 0.769043C14.4067 0.256348 15.0254 0 15.75 0C16.4746 0 17.0933 0.256348 17.606 0.769043C18.1187 1.28174 18.375 1.90039 18.375 2.625C18.375 3.10352 18.2554 3.54102 18.0161 3.9375C17.7769 4.33398 17.459 4.64844 17.0625 4.88086ZM15.75 1.3125C15.3809 1.3125 15.0698 1.43896 14.8169 1.69189C14.564 1.94482 14.4375 2.25586 14.4375 2.625C14.4375 2.99414 14.564 3.30518 14.8169 3.55811C15.0698 3.81104 15.3774 3.9375 15.7397 3.9375C16.1021 3.9375 16.4131 3.80762 16.6729 3.54785C16.9326 3.28809 17.0625 2.97705 17.0625 2.61475C17.0625 2.25244 16.936 1.94482 16.6831 1.69189C16.4302 1.43896 16.1191 1.3125 15.75 1.3125ZM7.875 3.9375C6.78125 3.9375 5.85156 4.32031 5.08594 5.08594C4.32031 5.85156 3.9375 6.78125 3.9375 7.875V16.1191C4.33398 16.3516 4.65186 16.666 4.89111 17.0625C5.13037 17.459 5.25 17.8965 5.25 18.375C5.25 19.0996 4.99365 19.7183 4.48096 20.231C3.96826 20.7437 3.34961 21 2.625 21C1.90039 21 1.28174 20.7437 0.769043 20.231C0.256348 19.7183 0 19.0996 0 18.375C0 17.8965 0.119629 17.459 0.358887 17.0625C0.598145 16.666 0.916016 16.3516 1.3125 16.1191V7.875C1.3125 6.68555 1.60645 5.58838 2.19434 4.5835C2.78223 3.57861 3.57861 2.78223 4.5835 2.19434C5.58838 1.60645 6.68555 1.3125 7.875 1.3125V0L11.8125 2.625L7.875 5.25V3.9375ZM2.63525 17.0625C2.27295 17.0625 1.96191 17.189 1.70215 17.4419C1.44238 17.6948 1.3125 18.0059 1.3125 18.375C1.3125 18.7441 1.43896 19.0552 1.69189 19.3081C1.94482 19.561 2.25586 19.6875 2.625 19.6875C2.99414 19.6875 3.30518 19.5576 3.55811 19.2979C3.81104 19.0381 3.9375 18.7271 3.9375 18.3647C3.9375 18.0024 3.81104 17.6948 3.55811 17.4419C3.30518 17.189 2.99756 17.0625 2.63525 17.0625Z" fill="#F0EEFF"/>
</svg>
