<svg width="24" height="28" viewBox="0 0 24 28" fill="none" xmlns="http://www.w3.org/2000/svg">
<path d="M12 25.9614C12.42 25.9504 12.823 25.771 13.1377 25.455C13.4525 25.139 13.6588 24.7067 13.72 24.2346H10.2133C10.2763 24.7196 10.4922 25.162 10.8209 25.4796C11.1495 25.7973 11.5685 25.9685 12 25.9614Z" fill="#F0EEFF"/>
<path d="M21.9 21.3038L21.6733 21.0766C21.0303 20.4257 20.4674 19.6793 20 18.8576C19.4895 17.7235 19.1835 16.4851 19.1 15.2148V11.4736C19.0973 11.0192 19.0616 10.5658 18.9933 10.118C17.8641 9.8543 16.8497 9.15542 16.122 8.13966C15.3943 7.12389 14.9979 5.85365 15 4.544V4.06688C14.304 3.67776 13.5561 3.42187 12.7867 3.30955V2.35531C12.7867 2.08716 12.6929 1.83 12.526 1.6404C12.3591 1.45079 12.1327 1.34427 11.8967 1.34427C11.6606 1.34427 11.4343 1.45079 11.2673 1.6404C11.1004 1.83 11.0067 2.08716 11.0067 2.35531V3.34742C9.28382 3.6235 7.70706 4.59834 6.56749 6.09194C5.42792 7.58555 4.80249 9.49707 4.80667 11.4736V15.2148C4.72318 16.4851 4.41719 17.7235 3.90667 18.8576C3.44726 19.6773 2.89347 20.4236 2.26001 21.0766L2.03334 21.3038V23.4395H21.9V21.3038Z" fill="#F0EEFF"/>
<path d="M20 8.33066C21.8409 8.33066 23.3333 6.63531 23.3333 4.54399C23.3333 2.45267 21.8409 0.757324 20 0.757324C18.159 0.757324 16.6667 2.45267 16.6667 4.54399C16.6667 6.63531 18.159 8.33066 20 8.33066Z" fill="#5887FF"/>
</svg>
